<?xml version="1.0" encoding="utf-8"?>
<!-- Generator: Adobe Illustrator 27.9.0, SVG Export Plug-In . SVG Version: 6.00 Build 0)  -->
<svg version="1.1" id="Layer_1" xmlns="http://www.w3.org/2000/svg" xmlns:xlink="http://www.w3.org/1999/xlink" x="0px" y="0px"
	 viewBox="0 0 474.42 133.58" style="enable-background:new 0 0 474.42 133.58;" xml:space="preserve">
<g>
	<path d="M141.7,85.2c-0.22,0.25-0.41,0.19-0.58,0.19c-27,0-53.99,0-80.99-0.02c-0.36,0-0.88,0.21-1.06-0.19
		c-0.16-0.34,0.31-0.61,0.51-0.88c4.39-5.92,8.8-11.83,13.19-17.74c3.41-4.59,6.8-9.2,10.21-13.8c4.01-5.4,8.02-10.79,12.03-16.19
		c1.11-1.49,2.2-2.98,3.31-4.47c0.27-0.36,0.26-0.55-0.25-0.55c-0.18,0-0.36,0-0.54,0c-23.26,0-46.51,0-69.77,0
		c-0.49,0-0.98,0.02-1.46,0.08c-0.94,0.12-1.25,0.46-1.24,1.42c0.02,2.27,0.09,4.54,0.09,6.8c0,2.47-0.06,4.95-0.09,7.42
		c0,0.23-0.01,0.47,0.02,0.7c0.09,1.04,0.35,1.37,1.37,1.39c2.16,0.04,4.33,0,6.49-0.01c0.57,0,1.13-0.05,1.7-0.05
		c8.66,0.03,17.32,0.06,25.99,0.09c0.28,0,0.57-0.02,0.85,0c0.34,0.03,0.81-0.24,0.99,0.16c0.14,0.32-0.27,0.57-0.46,0.83
		c-4.51,6.05-9.03,12.1-13.56,18.14c-5.54,7.41-11.09,14.81-16.64,22.21c-2.8,3.73-5.59,7.46-8.38,11.19
		c-0.16,0.22-0.49,0.44-0.35,0.72c0.14,0.29,0.51,0.14,0.78,0.14c38.88,0.01,77.76,0.01,116.64,0.02c0.34,0,0.87-0.2,0.97,0.18
		c0.09,0.34-0.44,0.5-0.74,0.67c-4.93,2.7-9.98,5.14-15.03,7.61c-0.23,0.11-0.46,0.23-0.69,0.34c-0.97,0.44-1.42,1.15-1.41,2.25
		c0.07,4.2,0.08,8.4,0.12,12.6c0,0.31,0.01,0.62,0,0.93c-0.04,1.01-0.38,1.33-1.39,1.32c-3.89-0.01-7.79-0.05-11.68-0.01
		c-20.88,0.19-41.77,0.11-62.65,0.06c-6.11-0.01-12.22,0.07-18.33-0.13c-6.05-0.2-11.55-2.17-16.45-5.78
		c-4.03-2.97-7.1-6.71-9.3-11.17c-1.74-3.53-2.74-7.26-3.09-11.19c-0.12-1.39-0.14-2.78-0.14-4.17c0-29.47,0-58.94,0-88.41
		c0-2.11,0.16-2.26,2.3-2.26c29.6,0,59.2,0,88.8,0c3.98,0,7.88,0.55,11.61,1.93c4.82,1.78,8.9,4.69,12.35,8.52
		c3.71,4.12,6.19,8.86,7.23,14.3c0.45,2.35,0.62,4.75,0.66,7.15c0.22,12.32,0.06,24.65,0.07,36.97c0,1.13,0.45,1.76,1.4,2.23
		c5.21,2.59,10.42,5.21,15.63,7.82C141.05,84.75,141.4,84.91,141.7,85.2z"/>
	<g>
		<path d="M161.25,96.44c-8.25-5.42-14.08-14.16-15.7-24.44c-0.16-1.7-0.32-3.56-0.32-5.34c0-3.64,0.57-7.28,1.54-10.6
			c2.59-7.93,7.69-14.65,14.49-19.18c5.58-3.72,12.38-5.91,19.67-5.91c12.46,0,23.39,6.39,29.86,16.02
			c1.78,2.75,3.24,5.83,4.21,9.06c1.05,3.32,1.62,6.96,1.62,10.6c0,1.78-0.16,3.64-0.4,5.34h-16.35h-10.6h-16.02h-11.25
			c2.27,8.34,9.95,14.41,18.94,14.41c6.88,0,12.95-3.56,16.51-8.98l13.35,8.98c-6.47,9.55-17.4,16.02-29.86,16.02
			C173.63,102.43,166.83,100.25,161.25,96.44z M197.26,56.06h0.24c0-0.08-0.08-0.08-0.08-0.16c-3.56-5.34-9.63-8.9-16.51-8.9
			c-6.96,0-13.03,3.56-16.59,9.06H197.26z"/>
		<path d="M272.86,77.42l13.35,8.98c-6.47,9.55-17.4,16.02-29.86,16.02c-7.28,0-14.08-2.19-19.67-5.99
			c-9.71-6.39-16.02-17.32-16.02-29.78c0-12.38,6.31-23.39,16.02-29.78c5.58-3.72,12.38-5.91,19.67-5.91
			c12.46,0,23.39,6.39,29.86,16.02l-13.35,8.9c-3.56-5.34-9.63-8.9-16.51-8.9c-10.84,0-19.67,8.82-19.67,19.67
			c0,10.93,8.82,19.75,19.67,19.75C263.23,86.41,269.3,82.85,272.86,77.42z"/>
		<path d="M290.27,69.98V32.02v-1.05v-1.38V4.75h16.02v22.09v4.13v22.9v2.67l1.21-0.97l12.3-10.36l16.92-14.24h25.01l-32.45,27.19
			l32.45,44.27h-19.91l-24.85-33.99l-10.68,8.98v25.01h-16.02V90.94V69.98z"/>
		<path d="M365.78,66.66V11.71h16.02v19.26h16.11v16.02h-16.11v19.67c0,10.93,8.74,19.75,19.67,19.75v16.02
			c-7.28,0-14.08-2.19-19.67-5.99C372.18,90.05,365.78,79.12,365.78,66.66z"/>
		<path d="M402.29,66.66c0-12.38,6.39-23.39,16.02-29.78c5.67-3.72,12.46-5.91,19.75-5.91c7.28,0,14,2.19,19.67,5.91v-5.91h16.02
			v35.69v35.77h-16.02v-5.99c-5.67,3.8-12.38,5.99-19.67,5.99c-7.28,0-14.08-2.19-19.75-5.99
			C408.68,90.05,402.29,79.12,402.29,66.66z M457.73,66.66c0-10.84-8.82-19.67-19.67-19.67c-10.93,0-19.75,8.82-19.75,19.67
			c0,10.93,8.82,19.75,19.75,19.75C448.9,86.41,457.73,77.59,457.73,66.66z"/>
	</g>
</g>
</svg>
